<svg xmlns="http://www.w3.org/2000/svg" viewBox="0 0 40 40" width="40" height="40">
  <defs>
    <linearGradient id="g" x1="0" y1="0" x2="1" y2="1">
      <stop offset="0%" stop-color="#E4C46B"/>
      <stop offset="50%" stop-color="#C8992E"/>
      <stop offset="100%" stop-color="#A87C20"/>
    </linearGradient>
  </defs>
  <rect width="40" height="40" rx="11" fill="#101D30"/>
  <path d="M20 11c-2.6-1.8-5.6-2.4-8.6-2.1-.5 0-.9.4-.9.9v17.8c0 .6.5 1 1 .9 2.7-.3 5.4.2 7.7 1.8.5.3 1.1.3 1.6 0 2.3-1.6 5-2.1 7.7-1.8.5.1 1-.3 1-.9V9.8c0-.5-.4-.9-.9-.9-3-.3-6 .3-8.6 2.1Z" fill="none" stroke="url(#g)" stroke-width="1.8" stroke-linejoin="round"/>
  <line x1="20" y1="11" x2="20" y2="31" stroke="url(#g)" stroke-width="1.8"/>
</svg>
